<mxfile host="app.diagrams.net" modified="2024-03-02T14:56:42.365Z" agent="Mozilla/5.0 (Windows NT 10.0; Win64; x64) AppleWebKit/537.36 (KHTML, like Gecko) Chrome/122.0.0.0 Safari/537.36 Edg/122.0.0.0" version="23.1.7" etag="h87_Tw4no5iYd6q4x-I4" type="github">
  <diagram name="第 1 页" id="ZKyC8n9Ih3DnxyF2SCbh">
    <mxGraphModel>
      <root>
        <mxCell id="0" />
        <mxCell id="1" parent="0" />
      </root>
    </mxGraphModel>
  </diagram>
</mxfile>
